<svg width="372" height="370" viewBox="0 0 372 370" fill="none" xmlns="http://www.w3.org/2000/svg">
<g clip-path="url(#clip0_104_2)">
<path d="M192.505 0.000106861C115.58 0.143193 53.2632 64.7985 53.2632 144.536V345.911C53.2632 356.642 65.7848 362.015 73.1083 354.428L99.7628 326.008L138.042 366.472C142.582 371.176 149.943 371.176 154.483 366.472L192.761 326.008L231.04 366.472C235.58 371.176 242.941 371.176 247.48 366.472L285.76 326.008L312.415 354.428C319.738 362.015 332.26 356.641 332.26 345.91V145.774C332.259 66.1318 269.371 -0.142256 192.505 0.000106861ZM134.637 192.714C115.406 192.714 99.7628 176.505 99.7628 156.58C99.7628 136.655 115.407 120.447 134.637 120.447C153.867 120.447 169.511 136.656 169.511 156.58C169.511 176.505 153.868 192.714 134.637 192.714ZM250.886 192.714C231.655 192.714 216.011 176.505 216.011 156.58C216.011 136.655 231.656 120.447 250.886 120.447C270.115 120.447 285.76 136.656 285.76 156.58C285.76 176.505 270.116 192.714 250.886 192.714Z" fill="#EB459E"/>
</g>
<g clip-path="url(#clip1_104_2)">
<path d="M185.401 0.000106861C108.475 0.143193 46.1587 64.7985 46.1587 144.536V345.911C46.1587 356.642 58.6804 362.015 66.0038 354.428L92.6583 326.008L130.937 366.472C135.478 371.176 142.838 371.176 147.378 366.472L185.657 326.008L223.936 366.472C228.476 371.176 235.836 371.176 240.376 366.472L278.656 326.008L305.31 354.428C312.633 362.015 325.155 356.641 325.155 345.91V145.774C325.155 66.1318 262.267 -0.142256 185.401 0.000106861ZM127.532 192.714C108.302 192.714 92.6583 176.505 92.6583 156.58C92.6583 136.655 108.303 120.447 127.532 120.447C146.762 120.447 162.407 136.656 162.407 156.58C162.407 176.505 146.763 192.714 127.532 192.714ZM243.781 192.714C224.55 192.714 208.907 176.505 208.907 156.58C208.907 136.655 224.551 120.447 243.781 120.447C263.011 120.447 278.655 136.656 278.655 156.58C278.655 176.505 263.012 192.714 243.781 192.714Z" fill="#FEE75C"/>
</g>
<g clip-path="url(#clip2_104_2)">
<path d="M178.296 0.000106861C101.371 0.143193 39.0542 64.7985 39.0542 144.536V345.911C39.0542 356.642 51.5759 362.015 58.8993 354.428L85.5538 326.008L123.833 366.472C128.374 371.176 135.734 371.176 140.274 366.472L178.552 326.008L216.831 366.472C221.371 371.176 228.732 371.176 233.272 366.472L271.551 326.008L298.206 354.428C305.529 362.015 318.051 356.641 318.051 345.91V145.774C318.05 66.1318 255.162 -0.142256 178.296 0.000106861ZM120.428 192.714C101.197 192.714 85.5538 176.505 85.5538 156.58C85.5538 136.655 101.198 120.447 120.428 120.447C139.658 120.447 155.302 136.656 155.302 156.58C155.302 176.505 139.659 192.714 120.428 192.714ZM236.677 192.714C217.446 192.714 201.802 176.505 201.802 156.58C201.802 136.655 217.447 120.447 236.677 120.447C255.906 120.447 271.551 136.656 271.551 156.58C271.551 176.505 255.907 192.714 236.677 192.714Z" fill="#5865F2"/>
</g>
<defs>
<clipPath id="clip0_104_2">
<rect width="357.105" height="370" fill="white" transform="translate(14.209)"/>
</clipPath>
<clipPath id="clip1_104_2">
<rect width="357.105" height="370" fill="white" transform="translate(7.10449)"/>
</clipPath>
<clipPath id="clip2_104_2">
<rect width="357.105" height="370" fill="white"/>
</clipPath>
</defs>
</svg>
